<?xml version="1.0" encoding="utf-8"?>
<!-- Generator: Adobe Illustrator 26.0.2, SVG Export Plug-In . SVG Version: 6.00 Build 0)  -->
<svg version="1.1" id="Capa_1" xmlns="http://www.w3.org/2000/svg" xmlns:xlink="http://www.w3.org/1999/xlink" x="0px" y="0px"
	 viewBox="0 0 48 48" style="enable-background:new 0 0 48 48;" xml:space="preserve">
<style type="text/css">
	.st0{fill:#B1E8E3;stroke:#73D8D0;stroke-width:1.6561;stroke-miterlimit:10;}
	.st1{fill:#FFFFFF;}
</style>
<g>
	<path class="st0" d="M25.3,46.26h-2.99c-11.43,0-20.7-9.27-20.7-20.7v-2.99c0-11.43,9.27-20.7,20.7-20.7h2.99
		c11.43,0,20.7,9.27,20.7,20.7v2.99C46,37,36.73,46.26,25.3,46.26z"/>
	<g>
		<g>
			<path class="st1" d="M19.64,25.33c-0.73-0.6-1.11-1.36-1.28-2.25c-0.01-0.07-0.07-0.16-0.13-0.18c-0.42-0.18-0.73-0.47-0.94-0.86
				c-0.18-0.32-0.33-0.67-0.43-1.02c-0.2-0.72,0.04-1.16,0.72-1.43c-0.11-0.5-0.26-1-0.32-1.51c-0.12-1.09,0.07-2.13,0.76-3.03
				c0.78-1.02,1.77-1.71,3.05-1.91c1.57-0.25,2.95,0.16,4.1,1.27c0.62,0.6,0.93,1.36,0.93,2.21c0,0.9-0.07,1.81-0.12,2.71
				c0,0.08-0.01,0.15-0.02,0.23c0.13,0.04,0.26,0.07,0.37,0.13c0.39,0.22,0.54,0.58,0.5,1c-0.09,0.77-0.41,1.44-1,1.95
				c-0.03,0.03-0.06,0.06-0.09,0.07c-0.4,0.12-0.48,0.44-0.57,0.79c-0.16,0.69-0.52,1.28-1.07,1.76c-0.05,0.05-0.08,0.17-0.06,0.25
				c0.05,0.2,0.12,0.4,0.21,0.59c0.04,0.08,0.12,0.16,0.2,0.18c0.06,0.01,0.16-0.06,0.21-0.12c1.17-1.5,2.71-2.25,4.61-2.22
				c3.16,0.05,5.65,2.82,5.4,5.97c-0.23,2.93-2.6,5.15-5.54,5.16c-5.03,0.01-10.06,0-15.09,0.01c-0.37,0-0.64-0.16-0.83-0.46
				c-0.19-0.3-0.27-0.62-0.27-0.97c0-0.94,0.01-1.87,0-2.81c-0.01-1.14,0.45-2.03,1.35-2.72c0.84-0.64,1.81-1,2.8-1.31
				c0.64-0.2,1.29-0.38,1.94-0.56c0.15-0.04,0.24-0.11,0.3-0.26C19.41,25.78,19.52,25.56,19.64,25.33z M26.46,34.42
				c-2.09-1.28-3.05-3.11-2.91-5.52c-0.94,0.53-1.91,0.64-2.9,0.26c-1-0.38-1.64-1.13-1.97-2.15c-0.52,0.15-1.02,0.29-1.51,0.44
				c-0.86,0.27-1.7,0.58-2.43,1.13c-0.76,0.57-1.17,1.31-1.15,2.28c0.02,0.9,0,1.79,0.01,2.69c0,0.17,0.04,0.35,0.08,0.52
				c0.06,0.24,0.21,0.34,0.48,0.34c4.02-0.01,8.03-0.01,12.05-0.01C26.26,34.42,26.33,34.42,26.46,34.42z M29.11,34.42
				c2.73-0.01,4.94-2.22,4.93-4.94c-0.01-2.68-2.23-4.9-4.91-4.89c-2.76,0-4.95,2.2-4.95,4.97C24.19,32.22,26.43,34.43,29.11,34.42z
				 M22.32,18.28c-0.01,0.03-0.03,0.06-0.04,0.09c0.15,0.12,0.3,0.23,0.43,0.37c0.19,0.2,0.12,0.5-0.14,0.54
				c-0.83,0.16-1.79,0.04-2.33-0.85c-0.17-0.29-0.29-0.61-0.42-0.93c-0.14-0.35-0.22-0.39-0.55-0.2c-0.09,0.05-0.19,0.12-0.24,0.21
				c-0.14,0.25-0.32,0.51-0.37,0.79c-0.1,0.54-0.13,1.09-0.17,1.63c-0.02,0.2-0.03,0.39-0.22,0.51c-0.18,0.11-0.32-0.01-0.46-0.11
				c-0.16-0.12-0.3-0.07-0.35,0.12c-0.03,0.1-0.04,0.22-0.01,0.32c0.1,0.45,0.28,0.87,0.59,1.21c0.12,0.13,0.28,0.26,0.45,0.31
				c0.42,0.13,0.43,0.11,0.48,0.55c0.26,2.2,2.76,3.31,4.56,2.02c0.73-0.52,1.02-1.28,1.12-2.13c0.03-0.3,0.1-0.35,0.39-0.42
				c0.16-0.04,0.34-0.13,0.45-0.25c0.38-0.37,0.57-0.84,0.67-1.35c0.02-0.09,0-0.19-0.03-0.27c-0.07-0.21-0.24-0.25-0.38-0.07
				c-0.11,0.13-0.22,0.22-0.4,0.16c-0.19-0.06-0.21-0.23-0.24-0.41c-0.12-0.69-0.25-1.38-0.39-2.07c-0.05-0.23-0.16-0.44-0.26-0.7
				C23.95,18.19,23.21,18.4,22.32,18.28z M25.4,17.97c0.01,0,0.03,0,0.04-0.01c0-0.47,0.02-0.94,0-1.41
				c-0.04-0.66-0.28-1.25-0.78-1.71c-1.22-1.12-2.66-1.44-4.2-0.86c-1.49,0.56-2.46,1.64-2.58,3.31c-0.02,0.33,0.01,0.66,0.02,1
				c0.02,0,0.04,0,0.06,0c0.09-0.24,0.17-0.49,0.28-0.73c0.2-0.43,0.5-0.76,0.96-0.92c0.64-0.22,0.96-0.08,1.2,0.55
				c0.07,0.18,0.12,0.37,0.2,0.54c0.08,0.18,0.18,0.36,0.3,0.52c0.19,0.25,0.46,0.38,0.81,0.42c-0.09-0.13-0.16-0.23-0.22-0.34
				c-0.22-0.41-0.02-0.74,0.44-0.72c0.28,0.01,0.56,0.04,0.83,0.05c0.46,0.02,0.83-0.17,1.08-0.56c0.1-0.16,0.19-0.34,0.29-0.5
				c0.14-0.23,0.4-0.26,0.55-0.04c0.18,0.27,0.34,0.55,0.49,0.84C25.28,17.57,25.33,17.77,25.4,17.97z M24.16,26.89
				c-0.35-0.04-0.47-0.3-0.55-0.61c-0.05-0.2-0.14-0.39-0.21-0.59c-1.08,0.41-2.13,0.41-3.21-0.02c-0.09,0.18-0.17,0.35-0.26,0.52
				c-0.14,0.27-0.2,0.6-0.61,0.62c0.03,0.1,0.04,0.17,0.06,0.23c0.63,1.77,3.04,2.26,4.31,0.87c0.05-0.05,0.09-0.11,0.12-0.17
				C23.93,27.48,24.04,27.2,24.16,26.89z"/>
			<path class="st1" d="M27.96,30.66c-0.48,0-0.92,0-1.37,0c-0.38,0-0.53-0.15-0.53-0.53c0-0.37,0-0.74,0-1.11
				c0-0.32,0.16-0.48,0.49-0.49c0.46,0,0.91,0,1.37-0.01c0.01,0,0.01-0.01,0.05-0.03c0-0.41,0-0.84,0-1.27
				c0-0.4,0.15-0.55,0.54-0.55c0.37,0,0.74,0,1.12,0c0.33,0,0.48,0.15,0.48,0.49c0,0.45,0,0.89,0,1.37c0.45,0,0.88,0,1.31,0
				c0.42,0,0.55,0.13,0.55,0.56c0,0.36,0,0.71,0,1.07c0,0.36-0.14,0.51-0.5,0.51c-0.44,0-0.88,0-1.36,0c0,0.22,0,0.42,0,0.63
				c0,0.27,0,0.54,0,0.81c0,0.3-0.16,0.46-0.46,0.46c-0.4,0-0.81,0-1.21,0c-0.31,0-0.47-0.17-0.47-0.48
				C27.95,31.62,27.96,31.16,27.96,30.66z M26.71,30.01c0.44,0,0.86,0,1.27,0c0.52,0,0.62,0.1,0.62,0.62c0,0.42,0,0.84,0,1.26
				c0.3,0,0.56,0,0.84,0c0-0.46,0-0.9,0-1.34c0-0.4,0.15-0.54,0.55-0.55c0.43,0,0.86,0,1.3,0c0-0.29,0-0.56,0-0.84
				c-0.45,0-0.88,0-1.31,0c-0.38,0-0.53-0.15-0.53-0.54c0-0.22,0-0.45,0-0.67c0-0.21,0-0.43,0-0.63c-0.3,0-0.56,0-0.84,0
				c0,0.44,0,0.88,0,1.31c0,0.41-0.14,0.54-0.55,0.54c-0.45,0-0.89,0-1.35,0C26.71,29.46,26.71,29.72,26.71,30.01z"/>
		</g>
	</g>
</g>
</svg>
