<?xml version="1.0" encoding="utf-8"?>
<!-- Generator: Adobe Illustrator 26.0.2, SVG Export Plug-In . SVG Version: 6.00 Build 0)  -->
<svg version="1.1" id="Capa_1" xmlns="http://www.w3.org/2000/svg" xmlns:xlink="http://www.w3.org/1999/xlink" x="0px" y="0px"
	 viewBox="0 0 64 64" style="enable-background:new 0 0 64 64;" xml:space="preserve">
<style type="text/css">
	.st0{fill:#FFFFFF;}
</style>
<path class="st0" d="M56.52,61.06c-0.05-5.82-1.86-11.04-5.58-15.52c-4.13-4.97-9.41-8-15.86-8.78c-7.46-0.9-14.02,1.19-19.59,6.24
	c-4.57,4.14-7.15,9.33-7.87,15.45c-0.1,0.86-0.1,1.74-0.14,2.6c-1.51,0-3.03,0-4.54,0C3.4,47.64,10.2,38.7,22.33,33.5
	c-4.51-3.38-7.05-7.89-7.11-13.64c-0.05-4.68,1.63-8.75,4.97-12.04c6.93-6.83,17.62-6.28,23.92,0.29
	c6.96,7.26,6.17,19.24-2.56,25.46c0.24,0.1,0.44,0.18,0.63,0.25c8.86,3.53,14.77,9.82,17.67,18.91c0.63,1.97,0.98,4,1.11,6.06
	c0.01,0.18,0.07,0.36,0.1,0.54c0,0.57,0,1.14,0,1.7C59.55,61.06,58.04,61.06,56.52,61.06z M32.01,7.48
	c-6.73-0.01-12.23,5.48-12.27,12.22c-0.04,6.74,5.49,12.29,12.25,12.3c6.73,0.01,12.23-5.48,12.27-12.22
	C44.29,13.04,38.77,7.49,32.01,7.48z"/>
</svg>
