<?xml version="1.0" encoding="utf-8"?>
<!-- Generator: Adobe Illustrator 26.0.2, SVG Export Plug-In . SVG Version: 6.00 Build 0)  -->
<svg version="1.1" id="Capa_1" xmlns="http://www.w3.org/2000/svg" xmlns:xlink="http://www.w3.org/1999/xlink" x="0px" y="0px"
	 viewBox="0 0 64 64" style="enable-background:new 0 0 64 64;" xml:space="preserve">
<style type="text/css">
	.st0{fill:#FFFFFF;}
</style>
<g>
	<path class="st0" d="M61.62,60.8c-0.36,0.65-0.92,0.82-1.64,0.82c-18.64-0.01-37.29-0.01-55.93-0.01c-1.33,0-1.66-0.34-1.66-1.69
		c0-1.74,0.04-3.47-0.01-5.21c-0.13-5.29,2.16-9.09,6.95-11.47c-2.15-1.85-3.13-4.18-2.65-7.01c0.3-1.76,1.2-3.2,2.6-4.3
		c2.95-2.32,7.07-1.99,9.65,0.69c2.31,2.4,3.14,7.26-0.72,10.57c1.23,0.83,2.47,1.68,3.73,2.54c1.24-2.34,3.13-4.1,5.71-5.23
		c-2.02-1.7-3.02-3.83-2.78-6.43c0.17-1.9,1.03-3.49,2.48-4.75c2.79-2.42,7.01-2.28,9.67,0.34c1.54,1.52,2.26,3.38,2.13,5.54
		c-0.13,2.15-1.11,3.89-2.81,5.29c2.56,1.13,4.46,2.88,5.71,5.24c1.26-0.86,2.5-1.71,3.76-2.56c-1.87-1.57-2.87-3.66-2.67-6.22
		c0.15-1.93,1-3.54,2.46-4.82c2.86-2.51,7.23-2.28,9.88,0.48c2.57,2.68,2.92,7.51-0.81,10.66c0.3,0.15,0.59,0.28,0.86,0.43
		c3.41,1.89,5.44,4.75,5.99,8.62c0.02,0.13,0.07,0.25,0.1,0.38C61.62,55.4,61.62,58.1,61.62,60.8z M23,59.27c4.5,0,8.92,0,13.41,0
		c0-0.77-0.01-1.52,0-2.26c0.01-0.54-0.01-1.08,0.08-1.61c0.1-0.6,0.59-0.91,1.18-0.87c0.55,0.04,0.96,0.42,1.04,0.99
		c0.03,0.25,0.02,0.5,0.02,0.75c0,1,0,1.99,0,2.99c0.81,0,1.55,0,2.28,0c0-2.99,0.1-5.95-0.02-8.89c-0.18-4.48-4-8.19-8.48-8.4
		c-5.16-0.24-9.43,3.73-9.51,8.9c-0.04,2.7-0.01,5.4-0.01,8.1C22.98,59.05,22.99,59.14,23,59.27z M20.67,59.27
		c0-0.46-0.01-0.88,0-1.3c0.1-3.12-0.24-6.24,0.24-9.35c0.03-0.17-0.08-0.41-0.2-0.55c-2.26-2.66-5.14-3.78-8.56-3.18
		c-3.35,0.59-5.63,2.6-6.89,5.77c-0.6,1.51-0.57,3.09-0.56,4.67c0.01,1.31,0,2.61,0,3.94C10.03,59.27,15.31,59.27,20.67,59.27z
		 M43.34,59.26c5.36,0,10.65,0,15.96,0c0-1.95,0.04-3.85-0.01-5.76c-0.09-3.8-2.54-7.07-6.18-8.31c-3.45-1.18-7.39-0.06-9.75,2.82
		c-0.17,0.2-0.24,0.55-0.23,0.82c0.04,1.02,0.19,2.03,0.2,3.05C43.37,54.32,43.34,56.77,43.34,59.26z M13.7,32.69
		c-2.66,0.02-4.87,2.26-4.83,4.89c0.04,2.64,2.22,4.81,4.85,4.82c2.65,0,4.87-2.22,4.86-4.87C18.57,34.89,16.34,32.67,13.7,32.69z
		 M55.14,37.63c0.08-2.62-2.1-4.87-4.78-4.94c-2.61-0.06-4.82,2.07-4.92,4.74c-0.1,2.61,2.06,4.87,4.75,4.97
		C52.8,42.49,55.06,40.32,55.14,37.63z M32.03,29.92c-2.64-0.02-4.87,2.2-4.88,4.85c-0.01,2.62,2.16,4.82,4.8,4.86
		c2.63,0.05,4.87-2.16,4.9-4.82C36.89,32.17,34.68,29.94,32.03,29.92z"/>
	<path class="st0" d="M32.35,2.38c0.64,0.36,0.86,0.91,0.82,1.63c-0.04,0.63,0.01,1.27-0.01,1.9c-0.02,0.76-0.48,1.24-1.15,1.24
		c-0.67,0-1.13-0.48-1.15-1.24c-0.02-0.75,0.01-1.5-0.01-2.25c-0.01-0.62,0.35-0.98,0.81-1.29C31.89,2.38,32.12,2.38,32.35,2.38z"/>
	<path class="st0" d="M25.76,24.38c0.19-1.12,0.41-2.41,0.65-3.7c0.07-0.36,0.02-0.61-0.26-0.87c-0.85-0.79-1.66-1.62-2.5-2.41
		c-0.56-0.53-0.86-1.16-0.63-1.92c0.23-0.76,0.81-1.12,1.59-1.23c1.18-0.16,2.37-0.33,3.54-0.54c0.23-0.04,0.52-0.24,0.63-0.45
		c0.55-1.04,1.06-2.09,1.57-3.15c0.33-0.69,0.82-1.17,1.63-1.18c0.84-0.01,1.34,0.47,1.68,1.18c0.49,1.02,1.01,2.03,1.5,3.06
		c0.16,0.34,0.34,0.53,0.76,0.57c1.19,0.13,2.36,0.35,3.54,0.51c0.73,0.1,1.28,0.46,1.51,1.17c0.24,0.73,0.01,1.36-0.54,1.89
		c-0.83,0.8-1.65,1.63-2.49,2.41c-0.32,0.29-0.42,0.57-0.33,1.01c0.24,1.15,0.42,2.31,0.61,3.47c0.12,0.72-0.06,1.35-0.67,1.79
		c-0.58,0.42-1.22,0.44-1.86,0.11c-1.09-0.57-2.17-1.17-3.28-1.7c-0.23-0.11-0.6-0.11-0.83,0c-1.11,0.54-2.18,1.15-3.28,1.7
		C27.04,26.73,25.74,25.91,25.76,24.38z M26.03,16.39c0.46,0.49,0.87,0.94,1.31,1.37c1.65,1.62,1.65,1.62,1.23,3.88
		c-0.11,0.59-0.19,1.18-0.3,1.87c0.96-0.5,1.81-0.91,2.62-1.38c0.76-0.43,1.48-0.44,2.23,0.01c0.43,0.26,0.88,0.47,1.33,0.7
		c0.4,0.2,0.79,0.4,1.29,0.65c-0.18-1.07-0.32-2.02-0.51-2.96c-0.17-0.84,0.09-1.49,0.7-2.07c0.69-0.66,1.32-1.38,1.99-2.09
		c-1.02-0.15-2.06-0.33-3.11-0.45c-0.67-0.07-1.09-0.38-1.37-0.98c-0.37-0.82-0.8-1.62-1.2-2.43c-0.07-0.14-0.16-0.27-0.28-0.47
		c-0.48,0.97-0.92,1.84-1.35,2.72c-0.32,0.68-0.82,1.08-1.59,1.18C28.06,16.07,27.07,16.24,26.03,16.39z"/>
	<path class="st0" d="M26.47,10.58c-0.02,1.04-0.96,1.57-1.7,1.13c-0.16-0.1-0.31-0.23-0.45-0.36c-1.2-1.19-2.39-2.39-3.59-3.59
		c-0.35-0.35-0.62-0.74-0.47-1.28c0.23-0.85,1.21-1.18,1.87-0.55c1.38,1.31,2.71,2.67,4.04,4.03
		C26.35,10.16,26.42,10.47,26.47,10.58z"/>
	<path class="st0" d="M37.55,10.5c0.09-0.15,0.22-0.47,0.45-0.71c1.22-1.25,2.46-2.49,3.71-3.72c0.59-0.58,1.25-0.61,1.74-0.14
		c0.52,0.5,0.49,1.17-0.12,1.78c-1.23,1.25-2.47,2.48-3.71,3.71c-0.4,0.4-0.86,0.59-1.41,0.33C37.76,11.55,37.54,11.19,37.55,10.5z"
		/>
	<path class="st0" d="M37.56,50.01c0.63-0.01,1.15,0.49,1.16,1.11c0.01,0.63-0.49,1.14-1.12,1.15c-0.62,0.01-1.16-0.5-1.17-1.12
		C36.41,50.56,36.94,50.02,37.56,50.01z"/>
</g>
</svg>
