<?xml version="1.0" encoding="utf-8"?>
<!-- Generator: Adobe Illustrator 26.0.2, SVG Export Plug-In . SVG Version: 6.00 Build 0)  -->
<svg version="1.1" id="Capa_1" xmlns="http://www.w3.org/2000/svg" xmlns:xlink="http://www.w3.org/1999/xlink" x="0px" y="0px"
	 viewBox="0 0 64 64" style="enable-background:new 0 0 64 64;" xml:space="preserve">
<style type="text/css">
	.st0{fill:#FFFFFF;}
</style>
<g>
	<g>
		<path class="st0" d="M45.27,62.37c-1.4-0.51-1.87-1.55-1.86-3c0.04-6.25,0.02-12.49,0.02-18.74c0-0.25,0-0.5,0-0.82
			c-0.67,0-1.28,0.01-1.88,0c-1.66-0.02-2.63-0.97-2.63-2.61c-0.01-4.92-0.03-9.84,0.01-14.77c0.03-4.08,2.99-7.09,7.04-7.17
			c2.37-0.05,4.74-0.05,7.1,0.02c3.57,0.11,6.56,3.21,6.64,6.78c0.01,0.66-0.28,1.07-0.8,1.13c-0.53,0.06-0.92-0.31-0.97-1.01
			c-0.13-1.62-0.74-2.97-2.02-4c-0.82-0.66-1.76-1.09-2.81-1.11c-2.52-0.03-5.05-0.08-7.57,0.01c-2.45,0.08-4.56,2.19-4.75,4.63
			c-0.09,1.14-0.08,2.29-0.08,3.43c-0.01,3.93,0,7.87,0,11.8c0,0.96,0.13,1.08,1.1,1.08c0.47,0,0.95,0,1.42-0.01
			c0.04,0,0.07-0.02,0.18-0.05c0.01-0.22,0.04-0.47,0.04-0.71c0-4.78,0-9.57,0-14.35c0-0.27,0-0.56,0.07-0.82
			c0.11-0.44,0.45-0.72,0.87-0.61c0.3,0.08,0.6,0.39,0.77,0.67c0.13,0.21,0.06,0.54,0.06,0.81c0,12.12,0,24.24,0,36.35
			c0,0.24-0.06,0.51,0.03,0.7c0.11,0.23,0.35,0.53,0.56,0.55c0.66,0.07,1.34,0.03,2.01,0.02c0.38-0.01,0.57-0.24,0.6-0.6
			c0.02-0.2,0.01-0.39,0.01-0.59c0-4.33,0-8.66,0-12.99c0-0.24,0-0.48,0.04-0.71c0.07-0.46,0.39-0.69,0.83-0.7
			c0.43-0.01,0.76,0.21,0.85,0.67c0.05,0.25,0.06,0.51,0.06,0.77c0,4.37,0,8.74,0,13.11c0,0.96,0.09,1.05,1.05,1.05
			c0.49,0,0.99,0,1.48,0c0.44,0,0.65-0.24,0.68-0.65c0.01-0.2,0.01-0.4,0.01-0.59c0-12.14,0-24.28,0-36.41
			c0-0.26-0.07-0.57,0.05-0.76c0.18-0.29,0.45-0.6,0.75-0.7c0.41-0.13,0.77,0.14,0.89,0.57c0.07,0.26,0.08,0.55,0.08,0.82
			c0,4.78,0,9.57,0,14.35c0,0.24,0,0.47,0,0.77c0.78,0,1.52,0.04,2.25-0.01c0.41-0.03,0.48-0.4,0.48-0.76c0-1.25,0-2.49,0-3.74
			c0-2.59,0-5.18,0-7.77c0-0.2-0.06-0.45,0.04-0.58c0.2-0.27,0.46-0.6,0.76-0.7c0.42-0.14,0.77,0.13,0.9,0.57
			c0.07,0.22,0.08,0.47,0.08,0.7c0,3.78,0,7.55,0,11.33c0,1.85-0.92,2.78-2.76,2.78c-0.55,0-1.1,0-1.75,0c0,0.28,0,0.53,0,0.77
			c0,6.27-0.02,12.53,0.01,18.8c0.01,1.45-0.47,2.49-1.88,2.99c-1.03,0-2.05,0-3.08,0c-0.63-0.51-1.26-0.49-1.89,0
			C47.32,62.37,46.29,62.37,45.27,62.37z"/>
		<path class="st0" d="M9.99,62.37c-1.3-0.48-1.72-1.43-1.7-2.77c0.05-3.24,0.02-6.48,0.02-9.72c0-0.21,0-0.43,0-0.74
			c-0.41,0-0.78,0-1.15,0c-1-0.01-1.29-0.31-1.2-1.29c0.17-1.73,0.37-3.46,0.55-5.18c-0.03-0.03-0.05-0.09-0.08-0.09
			c-1.44-0.19-2.14-1.23-2.12-2.72c0.04-4.21,0-8.42,0.02-12.63c0.01-3.13,2-5.63,4.97-6.32c0.21-0.05,0.43-0.1,0.64-0.1
			c2.68,0.04,5.39-0.16,8.02,0.2c2.84,0.39,4.8,3.06,4.82,5.94c0.03,4.45,0.02,8.89,0.01,13.34c0,1.25-0.64,1.92-2.17,2.31
			c0.1,1,0.21,2.02,0.32,3.03c0.08,0.79,0.19,1.57,0.27,2.35c0.07,0.69-0.27,1.09-0.97,1.13c-0.43,0.02-0.86,0-1.39,0
			c0,0.58,0,1.1,0,1.62c0,0.57,0.02,1.15-0.03,1.72c-0.04,0.52-0.45,0.86-0.9,0.84c-0.47-0.02-0.82-0.37-0.84-0.9
			c-0.03-0.85-0.01-1.7-0.01-2.55c0-0.21,0-0.43,0-0.68c-2.33,0-4.61,0-6.94,0c-0.01,0.19-0.03,0.38-0.03,0.57
			c0,3.34,0,6.68,0,10.02c0,0.78,0.03,0.81,0.79,0.82c0.36,0,0.71-0.03,1.06,0.01c0.58,0.05,0.75-0.22,0.75-0.77
			c-0.02-2.87-0.01-5.73-0.01-8.6c0-0.22,0-0.44,0.02-0.65c0.06-0.48,0.37-0.75,0.84-0.76c0.44-0.01,0.75,0.22,0.85,0.67
			c0.05,0.23,0.06,0.47,0.06,0.7c0,2.87,0,5.73,0,8.6c0,0.76,0.04,0.79,0.81,0.8c0.36,0,0.71-0.02,1.06,0.01
			c0.54,0.04,0.74-0.19,0.73-0.72c-0.02-1.4-0.01-2.81,0-4.21c0-0.22-0.05-0.5,0.06-0.63c0.21-0.25,0.51-0.56,0.78-0.57
			c0.27-0.01,0.62,0.27,0.82,0.51c0.14,0.17,0.11,0.49,0.11,0.74c0.01,1.3-0.03,2.61,0.01,3.91c0.05,1.35-0.45,2.29-1.75,2.75
			c-0.87,0-1.74,0-2.6,0c-0.63-0.41-1.26-0.38-1.89,0C11.72,62.37,10.85,62.37,9.99,62.37z M7.79,47.3c3.89,0,7.7,0,11.53,0
			c-0.2-1.76-0.39-3.47-0.57-5.18c-0.46-4.2-0.92-8.4-1.38-12.61c-0.12-1.08-0.24-2.16-0.35-3.24c-0.06-0.59,0.25-1.02,0.75-1.1
			c0.5-0.08,0.9,0.26,1,0.85c0.03,0.16,0.05,0.31,0.07,0.47c0.45,4.14,0.9,8.29,1.35,12.43c0.07,0.62,0.15,1.23,0.23,1.84
			c0.57-0.01,0.59-0.34,0.59-0.7c0-3.04,0-6.09,0-9.13c0-1.32,0.03-2.65-0.02-3.97c-0.08-2.34-1.71-4.18-4.04-4.34
			c-2.14-0.15-4.3-0.09-6.44-0.06c-0.61,0.01-1.26,0.18-1.82,0.45c-1.8,0.87-2.59,2.4-2.59,4.37c-0.01,3.99,0,7.99,0,11.98
			c0,0.3,0,0.59,0,0.89c0.01,0.36,0.19,0.53,0.6,0.5c0.03-0.19,0.07-0.36,0.09-0.53c0.52-4.69,1.03-9.39,1.54-14.08
			c0.07-0.64,0.45-1.02,0.96-0.98c0.54,0.04,0.86,0.48,0.8,1.16c-0.06,0.67-0.15,1.33-0.22,2c-0.42,3.79-0.83,7.58-1.25,11.37
			C8.34,42.21,8.07,44.73,7.79,47.3z"/>
		<path class="st0" d="M29.28,62.37c-1.4-0.57-1.81-1.65-1.79-3.11c0.06-3.48,0.01-6.96,0.03-10.43c0-0.41-0.12-0.7-0.4-0.99
			c-1.16-1.21-2.33-2.42-3.44-3.68c-1.23-1.39-0.61-3.46,1.14-3.91C25.77,40,26.57,40.3,27.23,41c0.97,1.04,1.94,2.08,2.93,3.1
			c0.18,0.18,0.49,0.32,0.75,0.33c0.85,0.04,1.7,0.04,2.54,0c0.24-0.01,0.53-0.13,0.7-0.31c1.05-1.07,2.05-2.19,3.1-3.26
			c0.7-0.72,1.58-0.89,2.51-0.54c0.93,0.35,1.44,1.07,1.52,2.07c0.06,0.76-0.25,1.38-0.76,1.92c-1.13,1.19-2.26,2.38-3.35,3.59
			c-0.19,0.21-0.32,0.54-0.33,0.82c-0.04,1.03-0.01,2.05-0.02,3.08c0,0.2-0.02,0.4-0.06,0.59c-0.11,0.45-0.43,0.68-0.86,0.66
			c-0.46-0.02-0.82-0.29-0.82-0.77c-0.03-1.5-0.03-3,0.01-4.5c0.01-0.25,0.25-0.53,0.44-0.74c1.16-1.26,2.34-2.51,3.52-3.77
			c0.11-0.12,0.22-0.23,0.32-0.35c0.21-0.3,0.24-0.65-0.08-0.82c-0.2-0.11-0.53-0.03-0.79,0.04c-0.13,0.03-0.22,0.21-0.33,0.33
			c-0.97,1.04-1.96,2.06-2.91,3.12c-0.4,0.44-0.84,0.66-1.44,0.64c-1.1-0.03-2.21-0.03-3.31,0c-0.58,0.02-1.01-0.19-1.4-0.62
			c-0.98-1.08-1.99-2.14-2.99-3.21c-0.3-0.33-0.63-0.71-1.09-0.3c-0.46,0.41-0.12,0.77,0.19,1.1c1.18,1.25,2.34,2.52,3.53,3.75
			c0.38,0.4,0.55,0.81,0.55,1.37c-0.02,3.74-0.01,7.47-0.01,11.21c0,0.94,0.1,1.04,1.06,1.04c0.27,0,0.55,0,0.9,0
			c0-0.25,0-0.46,0-0.67c0-2.08,0-4.15,0-6.23c0-0.24,0-0.48,0.04-0.71c0.09-0.45,0.42-0.75,0.83-0.66
			c0.31,0.06,0.62,0.35,0.81,0.62c0.13,0.17,0.08,0.49,0.08,0.75c0,2.27,0,4.54,0,6.89c0.52,0,1.01,0.03,1.49-0.01
			c0.46-0.03,0.55-0.38,0.55-0.77c0-1.38,0-2.77,0-4.15c0-0.2-0.01-0.4,0.02-0.59c0.06-0.45,0.33-0.72,0.77-0.76
			c0.47-0.04,0.8,0.18,0.92,0.65c0.05,0.21,0.06,0.43,0.06,0.64c0.01,1.28-0.03,2.57,0.01,3.85c0.05,1.44-0.48,2.44-1.88,2.91
			C33.07,62.37,31.18,62.37,29.28,62.37z"/>
		<path class="st0" d="M50.12,1.63c1.23,0.29,2.37,0.75,3.37,1.59c2.84,2.38,2.95,7.02,0.2,9.5c-1.89,1.71-4.08,2.22-6.47,1.39
			c-2.38-0.83-3.81-2.57-4.25-5.08c-0.59-3.28,1.77-6.64,5.11-7.27c0.13-0.02,0.26-0.08,0.38-0.12C49.02,1.63,49.57,1.63,50.12,1.63
			z M49.29,12.69c2.55,0.01,4.63-2.06,4.63-4.61c0.01-2.55-2.07-4.64-4.61-4.65c-2.52-0.01-4.63,2.09-4.64,4.63
			C44.66,10.59,46.74,12.68,49.29,12.69z"/>
		<path class="st0" d="M19.95,13.49c0,3.55-2.84,6.41-6.38,6.42c-3.55,0.01-6.44-2.88-6.43-6.43c0.01-3.52,2.89-6.4,6.42-6.39
			C17.09,7.08,19.95,9.95,19.95,13.49z M18.17,13.5c0-2.55-2.07-4.63-4.62-4.63c-2.53,0-4.63,2.1-4.63,4.63
			c0,2.54,2.09,4.63,4.63,4.63C16.11,18.13,18.17,16.06,18.17,13.5z"/>
		<path class="st0" d="M28.27,39.23c0.01-2.13,1.82-3.92,3.9-3.87c2.12,0.05,3.85,1.81,3.83,3.89c-0.01,2.12-1.83,3.92-3.91,3.87
			C29.97,43.07,28.25,41.32,28.27,39.23z M34.23,39.21c-0.02-1.15-1.02-2.11-2.15-2.07c-1.14,0.04-2.05,0.99-2.03,2.12
			c0.02,1.13,0.96,2.07,2.09,2.07C33.27,41.34,34.25,40.35,34.23,39.21z"/>
	</g>
</g>
</svg>
