<?xml version="1.0" encoding="utf-8"?>
<!-- Generator: Adobe Illustrator 26.0.2, SVG Export Plug-In . SVG Version: 6.00 Build 0)  -->
<svg version="1.1" id="Capa_1" xmlns="http://www.w3.org/2000/svg" xmlns:xlink="http://www.w3.org/1999/xlink" x="0px" y="0px"
	 viewBox="0 0 64 64" style="enable-background:new 0 0 64 64;" xml:space="preserve">
<style type="text/css">
	.st0{fill:#FFFFFF;}
</style>
<g>
	<path class="st0" d="M35.01,2.25c0.39,0.09,0.78,0.18,1.17,0.28c3.89,1.01,6.67,4.5,6.7,8.54c0.03,4.4,0.02,8.79,0,13.19
		c0,1.2-0.32,2.33-0.89,3.39c-1.43,2.62-4.68,3.12-6.82,1.04c-2.43-2.36-2.97-6.47-1.25-9.38c1.35-2.28,4.3-2.81,6.36-1.13
		c0.18,0.15,0.35,0.3,0.58,0.5c0.02-0.19,0.05-0.32,0.05-0.46c0-2.32,0.01-4.65,0-6.97c-0.03-3.94-3.08-7-7-7.01
		c-1.62,0-3.26-0.09-4.86,0.11c-3.45,0.43-5.94,3.35-5.96,6.84c-0.02,3.2,0,6.39-0.01,9.59c0,1.57-0.73,2.29-2.31,2.3
		c-3.09,0-6.19,0-9.28,0c-4.19,0-7.21,3.02-7.2,7.21c0,1.55-0.09,3.11,0.1,4.64c0.45,3.53,3.35,5.99,6.92,6.01
		c3.17,0.01,6.34,0,9.51,0c1.53,0,2.27,0.74,2.27,2.28c0,3.1,0,6.2,0,9.3c0,4.24,3.01,7.26,7.22,7.25c1.54,0,3.11,0.08,4.63-0.11
		c3.31-0.41,5.74-3.06,5.95-6.43c0.1-1.69,0.02-3.39,0.02-4.99c-0.95,0.21-1.88,0.54-2.81,0.58c-2.87,0.12-4.83-1.73-5.04-4.6
		c-0.17-2.27,0.52-4.21,2.05-5.9c0.77-0.86,1.41-1.83,2.09-2.77c0.31-0.42,0.57-0.88,0.84-1.32c1.86-3.03,4.84-3.72,8.08-2.91
		c1.52,0.38,2.58,1.41,3.46,2.67c1.03,1.47,1.99,3,3.14,4.37c1.4,1.68,2.14,3.51,2.02,5.69c-0.15,2.57-1.64,4.4-3.96,4.75
		c-1.63,0.25-3.15-0.14-4.49-1.13c-1.01-0.75-2.13-0.95-3.39-0.67c0,1.26,0.04,2.5-0.01,3.73c-0.05,1.43,0.04,2.91-0.31,4.27
		c-0.96,3.72-3.46,5.92-7.24,6.65c-0.11,0.02-0.21,0.07-0.32,0.11c-2.01,0-4.02,0-6.03,0c-0.07-0.03-0.13-0.08-0.2-0.09
		c-4.67-0.82-7.67-4.38-7.68-9.12c0-2.98,0-5.96,0-8.94c0-0.21,0-0.42,0-0.68c-0.27,0-0.47,0-0.68,0c-3.09,0-6.18,0.02-9.27-0.01
		c-4.05-0.04-7.51-2.75-8.55-6.66c-0.11-0.41-0.2-0.82-0.3-1.23c0-2.01,0-4.03,0-6.04c0.03-0.07,0.08-0.13,0.09-0.2
		c0.82-4.69,4.37-7.69,9.1-7.69c2.98,0,5.95,0,8.93,0c0.21,0,0.41,0,0.68,0c0-0.27,0-0.47,0-0.68c0-3.1-0.02-6.2,0.01-9.29
		c0.03-3.64,2.23-6.87,5.61-8.21c0.73-0.29,1.51-0.44,2.26-0.66C30.99,2.25,33,2.25,35.01,2.25z M43.81,33.02
		c-1.76-0.09-3.1,0.66-4.05,2.16c-0.17,0.26-0.32,0.53-0.51,0.78c-0.97,1.32-1.91,2.67-2.93,3.95c-1.02,1.28-1.48,2.7-1.29,4.32
		c0.18,1.55,1.09,2.53,2.39,2.64c0.99,0.08,1.91-0.14,2.75-0.71c2.5-1.7,4.89-1.68,7.39-0.03c0.5,0.33,1.11,0.57,1.7,0.69
		c1.68,0.33,3.01-0.52,3.35-2.07c0.37-1.69,0.1-3.29-1.04-4.59c-1.37-1.57-2.52-3.27-3.62-5.02C47,33.63,45.62,32.92,43.81,33.02z
		 M34.73,23.01c0.05,0.02,0.1,0.03,0.15,0.05c0,1.62,0.53,3.03,1.64,4.21c1,1.07,2.7,0.96,3.53-0.22c1.44-2.05,0.97-5.67-0.95-7.28
		c-1.25-1.05-2.88-0.76-3.58,0.73C35.16,21.29,34.99,22.17,34.73,23.01z"/>
	<path class="st0" d="M54.84,23.24c-0.05,1.88-0.66,3.69-2.04,5.21c-2.18,2.39-5.69,1.9-7.14-0.99c-1.51-3.02-0.81-6.99,1.62-9.12
		c2.26-1.98,5.36-1.39,6.73,1.29C54.54,20.67,54.84,21.93,54.84,23.24z M46.83,24.03c-0.02,0.99,0.25,1.92,0.71,2.78
		c0.72,1.35,2.51,1.6,3.6,0.53c1.69-1.67,2.2-4.38,1.23-6.54c-0.85-1.9-2.67-2.22-4.08-0.69C47.27,21.21,46.89,22.57,46.83,24.03z"
		/>
	<path class="st0" d="M61.7,31.41c-0.06,2.56-1.68,4.77-4,5.39c-1.76,0.47-3.34-0.33-4.02-2.03c-1.08-2.7,0.61-6.3,3.38-7.18
		c2.08-0.67,4.04,0.49,4.49,2.68C61.63,30.64,61.66,31.02,61.7,31.41z M59.73,31.32c-0.03-0.2-0.06-0.5-0.13-0.77
		c-0.27-1.01-1.01-1.38-2-1.03c-1.47,0.52-2.53,2.41-2.23,3.99c0.26,1.39,1.34,1.88,2.54,1.11C59.07,33.88,59.6,32.75,59.73,31.32z"
		/>
	<path class="st0" d="M26.03,31.35c0.06-0.4,0.08-0.81,0.18-1.2c0.54-2.26,2.67-3.34,4.8-2.44c2.44,1.02,3.92,4.11,3.18,6.65
		c-0.59,2.05-2.41,3.02-4.43,2.36C27.58,36.02,26.07,33.82,26.03,31.35z M28,31.16c0.13,1.67,0.72,2.92,2.14,3.62
		c0.93,0.46,1.76,0.1,2.11-0.83c0.63-1.72-0.63-4.09-2.4-4.51c-0.68-0.16-1.25,0.07-1.55,0.69C28.14,30.48,28.08,30.89,28,31.16z"/>
	<path class="st0" d="M6.26,29.81c0.07-2.54,2.26-4.71,4.79-4.76c0.64-0.01,1.09,0.35,1.12,0.92c0.04,0.59-0.32,0.97-0.98,1.05
		c-1.82,0.22-2.8,1.18-2.97,2.91c-0.07,0.71-0.44,1.08-1.05,1.05C6.59,30.95,6.24,30.5,6.26,29.81z"/>
	<path class="st0" d="M15.64,27.02c-0.99,0.01-1.46-0.31-1.46-0.98c0-0.67,0.48-1,1.47-0.99c0.23,0,0.47-0.01,0.69,0.04
		c0.51,0.12,0.8,0.46,0.79,0.99c0,0.51-0.38,0.89-0.92,0.94C16.03,27.04,15.83,27.02,15.64,27.02z"/>
</g>
</svg>
