<?xml version="1.0" encoding="utf-8"?>
<!-- Generator: Adobe Illustrator 24.1.3, SVG Export Plug-In . SVG Version: 6.00 Build 0)  -->
<svg version="1.1" id="Capa_1" xmlns="http://www.w3.org/2000/svg" xmlns:xlink="http://www.w3.org/1999/xlink" x="0px" y="0px"
	 viewBox="0 0 108 88" style="enable-background:new 0 0 108 88;" xml:space="preserve">
<style type="text/css">
	.st0{fill:#005296;}
</style>
<g>
	<g>
		<g>
			<path class="st0" d="M6.7,8.3c0,0.2,0,0.3-0.1,0.4C6.5,8.7,6.4,8.8,6.2,8.8h-3c-0.1,0-0.2,0-0.4-0.1C2.7,8.5,2.7,8.4,2.7,8.3V5.5
				c0-0.1,0-0.3,0.1-0.4C2.9,5,3,5,3.2,5h3c0.3,0,0.5,0.2,0.5,0.5V8.3z M6.7,23.3c0,0.3-0.2,0.5-0.6,0.5h-3c-0.3,0-0.5-0.2-0.5-0.5
				V11c0-0.1,0-0.3,0.1-0.4c0.1-0.1,0.2-0.1,0.4-0.1h3c0.1,0,0.2,0,0.4,0.1s0.2,0.2,0.2,0.4V23.3z"/>
			<path class="st0" d="M19.5,7.3c-0.4-0.3-0.8-0.5-1.2-0.6s-0.9-0.2-1.4-0.2c-0.6,0-1.2,0.1-1.7,0.4c-0.5,0.2-1,0.6-1.4,1
				c-0.4,0.4-0.7,0.9-0.9,1.4c-0.2,0.6-0.3,1.1-0.3,1.8s0.1,1.2,0.3,1.8c0.2,0.5,0.5,1,0.9,1.4c0.4,0.4,0.8,0.7,1.4,1
				c0.5,0.2,1.1,0.4,1.7,0.4c0.3,0,0.5,0,0.8-0.1s0.5-0.1,0.8-0.1v-3c0-0.1,0-0.3,0.1-0.4c0.1-0.1,0.2-0.1,0.4-0.1h3.1
				c0.1,0,0.2,0,0.4,0.1s0.2,0.2,0.2,0.4v5.5c0,0.2-0.1,0.4-0.3,0.5c-0.4,0.2-0.8,0.5-1.2,0.6c-0.4,0.2-0.9,0.3-1.4,0.4
				c-0.5,0.1-0.9,0.2-1.4,0.3s-1,0.1-1.4,0.1c-0.8,0-1.6-0.1-2.3-0.3c-0.7-0.2-1.4-0.5-2.1-0.9c-0.6-0.4-1.2-0.8-1.8-1.4
				c-0.5-0.5-1-1.1-1.4-1.8s-0.7-1.3-0.9-2.1c-0.2-0.7-0.3-1.5-0.3-2.3s0.1-1.6,0.3-2.3C8.7,7.9,9,7.2,9.4,6.6s0.8-1.2,1.4-1.8
				c0.5-0.5,1.1-1,1.8-1.4c0.6-0.4,1.3-0.7,2.1-0.9c0.7-0.2,1.5-0.3,2.3-0.3c0.9,0,1.8,0.1,2.6,0.4c0.8,0.3,1.6,0.6,2.3,1.1
				C21.9,3.8,22,3.9,22.1,4s0.1,0.3,0,0.4l-1.8,2.7c-0.1,0.1-0.2,0.2-0.3,0.2C19.8,7.4,19.7,7.4,19.5,7.3z"/>
			<path class="st0" d="M24.8,3c0-0.2,0-0.3,0.1-0.4c0.1-0.1,0.2-0.1,0.4-0.1h7.4c0.8,0,1.5,0.1,2.2,0.4c0.7,0.3,1.3,0.7,1.8,1.2
				c0.5,0.5,0.9,1.1,1.2,1.8c0.3,0.7,0.4,1.4,0.4,2.2c0,0.5-0.1,1-0.2,1.5c-0.1,0.5-0.3,0.9-0.6,1.3c-0.3,0.4-0.5,0.8-0.9,1.1
				c-0.3,0.3-0.7,0.6-1.1,0.9l2.9,5.5c0.1,0.1,0.1,0.2,0.2,0.4c0.1,0.1,0.1,0.3,0.1,0.4c0,0.1,0,0.2-0.1,0.3
				c-0.1,0.1-0.2,0.1-0.3,0.1h-3.9c-0.1,0-0.2,0-0.3-0.1c-0.1-0.1-0.2-0.2-0.2-0.3l-2.8-5.2h-1.8V19c0,0.3-0.2,0.5-0.5,0.5h-3.4
				c-0.2,0-0.3,0-0.4-0.1c-0.1-0.1-0.1-0.2-0.1-0.4V3z M33.8,8.1c0-0.2,0-0.5-0.1-0.7c-0.1-0.2-0.2-0.4-0.4-0.6
				c-0.2-0.2-0.3-0.4-0.5-0.5C32.5,6.2,32.3,6.1,32,6c-0.2,0-0.4,0-0.6,0S31,6,30.8,6h-1.6v4.2h2.1c0.1,0,0.3,0,0.4,0
				c0.1,0,0.2,0,0.4,0c0.3,0,0.5-0.1,0.7-0.2s0.4-0.3,0.5-0.5s0.3-0.4,0.3-0.6S33.8,8.3,33.8,8.1z"/>
			<path class="st0" d="M39.8,3c0-0.1,0-0.3,0.1-0.4c0.1-0.1,0.2-0.1,0.4-0.1h3.4c0.1,0,0.2,0,0.4,0.1s0.2,0.2,0.2,0.4v15.9
				c0,0.3-0.2,0.5-0.6,0.5h-3.4c-0.3,0-0.5-0.2-0.5-0.5V3z"/>
			<path class="st0" d="M45.8,3c0-0.2,0.1-0.3,0.2-0.4c0.1-0.1,0.2-0.1,0.4-0.1h12.3c0.1,0,0.3,0,0.4,0.1s0.2,0.2,0.2,0.4v2.8
				c0,0.1,0,0.3-0.1,0.4c-0.1,0.1-0.2,0.2-0.4,0.2h-3.9v12.5c0,0.1,0,0.3-0.1,0.4s-0.2,0.2-0.4,0.2h-3.3c-0.1,0-0.3-0.1-0.4-0.2
				c-0.1-0.1-0.2-0.2-0.2-0.4V6.4h-3.9c-0.2,0-0.3,0-0.4-0.1c-0.1-0.1-0.2-0.2-0.2-0.4V3z"/>
			<path class="st0" d="M62.5,2.9c0,0,0-0.1,0.1-0.1c0-0.1,0.1-0.1,0.2-0.1c0.1,0,0.1-0.1,0.2-0.1c0.1,0,0.1,0,0.2,0h2.9
				c0.1,0,0.2,0,0.3,0.1c0.1,0.1,0.2,0.2,0.2,0.2l0.3,0.7l6,15.5c0.1,0.2,0,0.3,0,0.4s-0.2,0.1-0.4,0.1h-3.3c-0.2,0-0.3,0-0.4-0.1
				c-0.1-0.1-0.2-0.2-0.2-0.3c-0.2-0.4-0.3-0.8-0.4-1.2s-0.3-0.8-0.4-1.2h-6.1c-0.1,0.4-0.3,0.8-0.4,1.2s-0.3,0.8-0.4,1.2
				c-0.1,0.3-0.3,0.4-0.6,0.4h-3.4c-0.1,0-0.3,0-0.4-0.1c-0.1-0.1-0.1-0.2-0.1-0.3L62.5,2.9z M64.6,7.8c-0.1,0.4-0.3,0.8-0.4,1.3
				c-0.1,0.4-0.3,0.9-0.4,1.4c-0.1,0.5-0.3,0.9-0.4,1.4S63,12.7,62.9,13h3.5L64.6,7.8z"/>
			<path class="st0" d="M73.6,3c0-0.1,0-0.3,0.1-0.4c0.1-0.1,0.2-0.1,0.4-0.1h3.4c0.1,0,0.2,0,0.4,0.1C78,2.7,78,2.8,78,3v12.4h6.3
				c0.1,0,0.3,0,0.4,0.1c0.1,0.1,0.1,0.2,0.1,0.4v3c0,0.1,0,0.2-0.1,0.4c-0.1,0.1-0.2,0.2-0.4,0.2H74.1c-0.3,0-0.5-0.2-0.5-0.5V3z"
				/>
			<path class="st0" d="M85.1,11c0-0.8,0.1-1.6,0.3-2.3c0.2-0.7,0.5-1.4,0.9-2.1s0.8-1.2,1.4-1.8c0.5-0.5,1.1-1,1.8-1.4
				s1.3-0.7,2.1-0.9c0.7-0.2,1.5-0.3,2.3-0.3c0.8,0,1.6,0.1,2.3,0.3s1.4,0.5,2.1,0.9s1.2,0.8,1.8,1.4c0.5,0.5,1,1.1,1.4,1.8
				c0.4,0.7,0.7,1.3,0.9,2.1c0.2,0.7,0.3,1.5,0.3,2.3s-0.1,1.6-0.3,2.3c-0.2,0.7-0.5,1.4-0.9,2.1c-0.4,0.6-0.8,1.2-1.4,1.8
				c-0.5,0.5-1.1,1-1.8,1.4c-0.6,0.4-1.3,0.7-2.1,0.9s-1.5,0.3-2.3,0.3c-0.8,0-1.6-0.1-2.3-0.3c-0.7-0.2-1.4-0.5-2.1-0.9
				c-0.6-0.4-1.2-0.8-1.8-1.4c-0.5-0.5-1-1.1-1.4-1.8s-0.7-1.3-0.9-2.1C85.2,12.6,85.1,11.8,85.1,11z M89.5,11
				c0,0.6,0.1,1.2,0.3,1.8s0.5,1,0.9,1.4c0.4,0.4,0.8,0.7,1.4,1c0.5,0.2,1.1,0.3,1.7,0.3s1.2-0.1,1.7-0.3c0.5-0.2,1-0.6,1.4-1
				c0.4-0.4,0.7-0.9,0.9-1.4s0.3-1.1,0.3-1.8c0-0.6-0.1-1.2-0.3-1.8c-0.2-0.6-0.5-1-0.9-1.4c-0.4-0.4-0.8-0.7-1.4-1
				c-0.5-0.2-1.1-0.4-1.7-0.4s-1.2,0.1-1.7,0.4c-0.5,0.2-1,0.6-1.4,1c-0.4,0.4-0.7,0.9-0.9,1.4C89.6,9.8,89.5,10.4,89.5,11z"/>
			<path class="st0" d="M15.9,26.5c0.1,0.1,0.2,0.2,0.3,0.3c0.1,0.1,0,0.3,0,0.4l-1.9,2.7c-0.1,0.1-0.2,0.2-0.3,0.2s-0.2,0-0.3-0.1
				c-0.4-0.3-0.8-0.5-1.2-0.7c-0.4-0.2-0.9-0.2-1.4-0.2c-0.6,0-1.2,0.1-1.7,0.4c-0.5,0.2-1,0.6-1.4,1S7.2,31.4,7,32
				c-0.2,0.5-0.3,1.1-0.3,1.8s0.1,1.2,0.3,1.8c0.2,0.5,0.5,1,0.9,1.4s0.8,0.7,1.4,1c0.5,0.2,1.1,0.4,1.7,0.4c0.5,0,1-0.1,1.4-0.2
				c0.5-0.2,0.9-0.4,1.2-0.7c0.1-0.1,0.3-0.1,0.3-0.1c0.1,0,0.2,0.1,0.3,0.2l2,2.8c0.1,0.2,0.1,0.3,0,0.4s-0.2,0.2-0.3,0.3
				c-0.7,0.5-1.5,0.9-2.3,1.1c-0.8,0.3-1.7,0.4-2.6,0.4c-0.8,0-1.6-0.1-2.3-0.3c-0.7-0.2-1.4-0.5-2.1-0.9c-0.6-0.4-1.2-0.8-1.8-1.4
				c-0.5-0.5-1-1.1-1.4-1.8s-0.7-1.3-0.9-2.1c-0.2-0.7-0.3-1.5-0.3-2.3s0.1-1.6,0.3-2.3c0.2-0.7,0.5-1.4,0.9-2.1s0.8-1.2,1.4-1.8
				s1.1-1,1.8-1.4c0.6-0.4,1.3-0.7,2.1-0.9C9.4,25.1,10.2,25,11,25c0.9,0,1.8,0.1,2.6,0.4C14.4,25.6,15.2,26,15.9,26.5z"/>
			<path class="st0" d="M16.2,33.7c0-0.8,0.1-1.6,0.3-2.3c0.2-0.7,0.5-1.4,0.9-2.1c0.4-0.7,0.8-1.2,1.4-1.8s1.1-1,1.8-1.4
				c0.6-0.4,1.3-0.7,2.1-0.9c0.7-0.2,1.5-0.3,2.3-0.3c0.8,0,1.6,0.1,2.3,0.3c0.7,0.2,1.4,0.5,2.1,0.9c0.6,0.4,1.2,0.8,1.8,1.4
				c0.5,0.5,1,1.1,1.4,1.8s0.7,1.3,0.9,2.1c0.2,0.7,0.3,1.5,0.3,2.3s-0.1,1.6-0.3,2.3c-0.2,0.7-0.5,1.4-0.9,2.1s-0.8,1.2-1.4,1.8
				c-0.5,0.5-1.1,1-1.8,1.4c-0.6,0.4-1.3,0.7-2.1,0.9c-0.7,0.2-1.5,0.3-2.3,0.3c-0.8,0-1.6-0.1-2.3-0.3c-0.7-0.2-1.4-0.5-2.1-0.9
				c-0.6-0.4-1.2-0.8-1.8-1.4c-0.5-0.5-1-1.1-1.4-1.8c-0.4-0.6-0.7-1.3-0.9-2.1C16.3,35.3,16.2,34.5,16.2,33.7z M20.6,33.7
				c0,0.6,0.1,1.2,0.3,1.8c0.2,0.5,0.5,1,0.9,1.4s0.8,0.7,1.4,1c0.5,0.2,1.1,0.3,1.7,0.3s1.2-0.1,1.7-0.3c0.5-0.2,1-0.6,1.4-1
				s0.7-0.9,0.9-1.4s0.3-1.1,0.3-1.8c0-0.6-0.1-1.2-0.3-1.8c-0.2-0.6-0.5-1-0.9-1.4s-0.8-0.7-1.4-1s-1.1-0.4-1.7-0.4
				s-1.2,0.1-1.7,0.4s-1,0.6-1.4,1s-0.7,0.9-0.9,1.4C20.7,32.5,20.6,33.1,20.6,33.7z"/>
			<path class="st0" d="M35.4,25.7c0-0.1,0-0.3,0.1-0.4c0.1-0.1,0.2-0.1,0.4-0.1h3.7c0.1,0,0.2,0,0.3,0.1c0.1,0.1,0.2,0.1,0.3,0.3
				c1,1.6,1.9,3.1,2.9,4.6c1,1.5,1.9,3.1,2.9,4.6v-9.1c0-0.1,0.1-0.2,0.2-0.3s0.2-0.1,0.3-0.1h3.3c0.2,0,0.3,0,0.4,0.1
				c0.1,0.1,0.2,0.2,0.2,0.4v16c0,0.2,0,0.3-0.1,0.3s-0.2,0.1-0.4,0.1h-3.6c-0.1,0-0.2,0-0.3-0.1c-0.1-0.1-0.2-0.2-0.2-0.3
				c-1-1.7-2-3.3-3-5c-1-1.6-2-3.3-3-5v9.8c0,0.2,0,0.3-0.1,0.4c-0.1,0.1-0.2,0.1-0.4,0.1h-3.2c-0.2,0-0.3,0-0.4-0.1
				s-0.1-0.2-0.1-0.3V25.7z"/>
		</g>
	</g>
	<g>
		<g>
			<g>
				<path class="st0" d="M20.6,65.8c0.1,0,0.2,0,0.3,0c0,0,0.1-0.1,0.1-0.1c0,0,0-0.1,0-0.1c0-0.1,0.1-0.1,0.1-0.1c0,0,0.1,0,0.1,0
					c0,0,0,0,0,0c0,0,0,0,0,0c0,0,0,0,0.1,0c0,0,0,0,0,0c0,0,0.1,0,0.1,0c0,0,0.1,0,0.1,0c0,0,0,0,0,0c0,0,0.1,0,0.1,0c0,0,0,0,0,0
					c0,0,0,0,0,0c0,0,0-0.1,0-0.1c0.1-0.1,0.3,0,0.5,0.1c0,0,0.1,0,0.1,0.1c0.2,0,0.3-0.1,0.3-0.3c-1.1-3.8-2.1-7.6-3-11.5
					c0-0.1-0.1-0.2-0.2-0.2c-0.5-0.8-1.8-0.7-2.6-0.8c-0.5-0.1-2.5-0.5-2.7,0.3c-0.1,0-0.2,0.1-0.2,0.2c-0.7,3.7-1.6,7.4-2.8,11
					c0,0.1,0,0.2,0,0.2c0,0,0,0,0,0c0.2,0.4,0.4,0.7,0.6,1.1c-0.1,0.2,0,0.4,0.2,0.4C14.9,65.7,17.7,65.6,20.6,65.8
					C20.6,65.8,20.6,65.8,20.6,65.8z M15.6,61.8c0.4-0.9,0.7-1.8,1.1-2.7l1.4,3.2C17.3,62.1,16.4,62,15.6,61.8z"/>
				<path class="st0" d="M61.6,72.7"/>
			</g>
			<path class="st0" d="M66.8,75.5C66.8,75.5,66.8,75.5,66.8,75.5c-0.1-0.1-0.1-0.1-0.1-0.1c-0.1,0-0.2,0-0.3-0.1
				c-0.1,0-0.1-0.1,0-0.2c0,0,0.2-0.1,0.3-0.2c0-0.1,0-0.1,0-0.2c0,0,0-0.1,0-0.1c0,0,0,0,0,0c0,0,0,0,0-0.1c0,0,0,0,0,0
				c-0.1,0-0.1-0.1-0.1-0.1c0-0.1,0-0.1,0-0.2c-0.1-0.3-0.2-0.5-0.4-0.7c0,0,0-0.1-0.1-0.1c0,0-0.1-0.1-0.1-0.2c0,0,0,0,0,0
				c-0.1,0-0.1,0-0.2-0.1c0,0,0-0.1,0-0.1c0,0,0,0,0,0c0,0-0.1,0-0.1,0c-0.1,0-0.2-0.1-0.1-0.2c0.1-0.1,0.2-0.1,0.2-0.2
				c0,0,0-0.1,0-0.1c0,0,0,0,0,0c0,0,0-0.1,0-0.1c0,0-0.1-0.1-0.1-0.1c0,0-0.1,0,0-0.1c0,0,0-0.1,0-0.1c0,0,0-0.1-0.1-0.1
				c0-0.2-0.1-0.4-0.3-0.4c-0.3-0.1-0.5-0.1-0.8-0.1c-0.6,0-2.3,0-5.1,0.6c-0.5,0.1-0.9,0.3-1.4,0.4c-0.6,0.2-1.3,0.4-2,0.7
				c-5.7,2.1-5.9,3.4-6,3.9c-0.1,0.4,0.1,1.1,0.1,1.6c0.1,0.2,0.2,0.4,0.2,0.5c0,0.1,0,0.1,0,0.2c0.3,0.8,0.8,1.4,1.5,1.9
				c0,0.1,0.1,0.2,0.3,0.2c0,0,0.1,0,0.1,0c0,0,0,0,0.1,0c0.2,0.1,0.3,0.1,0.4,0c0,0,0.1,0,0.1,0c0.1,0,0.2,0,0.3,0
				c0.6-0.1,1.2-0.3,1.8-0.7c0.3-0.2,3.7-2.6,6.2-3.5c2.6-0.9,4.6-1.2,4.9-1.5c0,0,0,0,0,0c0.2,0,0.5-0.1,0.5-0.3
				c0,0,0.1-0.1,0.1-0.2C66.8,75.6,66.8,75.6,66.8,75.5C66.9,75.6,66.9,75.5,66.8,75.5C66.9,75.5,66.8,75.5,66.8,75.5z M51.1,77.2
				C51.1,77.2,51.1,77.2,51.1,77.2C51.1,77.2,51.1,77.2,51.1,77.2C51.1,77.2,51.1,77.2,51.1,77.2C51.1,77.2,51.1,77.2,51.1,77.2z
				 M51.2,77.3C51.2,77.3,51.1,77.3,51.2,77.3C51.1,77.3,51.2,77.3,51.2,77.3C51.2,77.3,51.2,77.3,51.2,77.3z"/>
			<path class="st0" d="M98.8,71.1C98.8,71.1,98.8,71.1,98.8,71.1c0-0.1,0-0.1,0-0.1c0-0.1,0-0.1,0.1-0.1c0,0-0.1,0-0.1-0.1
				c0,0,0,0-0.1,0c-0.1-0.1,0-0.2,0.1-0.2c0,0,0,0,0,0c0.2,0.1,0.3,0,0.5,0c0-0.1,0.1-0.1,0.1-0.2c0,0,0,0,0-0.1
				c-0.1-0.1,0-0.2,0.1-0.2c0-0.1,0-0.2-0.1-0.3c0,0,0-0.1,0-0.2c-0.1-0.1-0.1-0.2-0.2-0.3c0,0,0-0.1,0-0.1c0,0-0.1,0-0.1-0.1
				c-0.1,0-0.1-0.1,0-0.1c0-0.1,0-0.2,0.1-0.1c0,0,0-0.1,0-0.1c0,0,0,0,0-0.1c-0.1-0.4-0.5-0.7-0.7-0.7c-0.3-0.1-0.6-0.2-0.9-0.3
				c-1.7-0.5-3.5-0.7-5.2-1c-3-0.5-6.1-0.7-9.1-0.8c0,0,0.7-3.5,0.8-4c0,0,0,0,0,0c0.5-0.1,1.1-0.1,1.6-0.3c0.1,0,0.3-0.1,0.4-0.1
				c0.7-0.1,1.5-0.3,2.2-0.4c0.1,0,0.1-0.1,0.2-0.1c0,0,0.1,0,0.1,0c0.2,0,0.3-0.1,0.4-0.1c0.2,0,0.4-0.1,0.7-0.1
				c0.3,0,0.5-0.2,0.5-0.5c0.2,0,0.4-0.1,0.5-0.1c0.2,0,0.3-0.1,0.3-0.2c0.1-0.1,0.3-0.2,0.4-0.3c0,0,0,0,0,0
				c-0.1,0-0.2-0.1-0.1-0.2c0,0,0.1-0.1,0.1-0.1c0,0,0-0.1,0-0.2c0.1,0,0.1-0.1,0.2-0.1c0,0,0-0.1,0.1-0.1c0.1,0,0.2-0.1,0.2-0.1
				c0.1-0.2,0.2-0.4,0.4-0.6c0.1-0.1,0.1-0.3,0.1-0.4c0,0,0,0,0,0c0,0,0-0.1,0-0.1c0-0.1,0-0.1-0.1-0.1c-0.1,0-0.1-0.1,0-0.2
				c0.1,0,0.1-0.1,0.1-0.1c0-0.1-0.1-0.2-0.2-0.3c0,0,0,0,0,0c-0.1,0-0.1,0-0.1-0.1c0,0-0.1,0-0.1,0c-1.3-0.3-2.7-0.1-4,0
				c-1.1,0-2.2,0-3.4-0.1c0-0.1,0-0.3,0-0.4c0.1-0.9,0.1-1.9,0.1-2.8c3.1-0.4,6.4-0.2,9.5-1.1c0.1,0,0.3-0.1,0.3-0.3
				c0,0,0-0.1,0-0.1c0,0,0,0,0-0.1c0,0,0-0.1,0-0.1l-0.1,0c-0.1,0-0.1-0.1,0-0.2c0.1,0,0.2-0.1,0.2-0.1c0,0,0,0,0-0.1
				c0.1-0.1,0.2-0.2,0.3-0.3c0,0,0,0,0-0.1c0,0,0-0.1,0-0.1c0,0,0,0,0.1,0c0,0,0-0.1,0-0.1c0,0,0-0.1,0-0.2c0,0,0-0.1,0.1-0.1
				c-0.1,0-0.1-0.2,0-0.2c0,0,0,0,0,0c0,0,0,0,0,0c0,0,0,0,0,0c0.3-0.2,0.4-0.6,0.2-0.8c-0.9-0.1-9.9-1.5-14-1.1c0,0-0.2,0-0.5,0
				c-0.1,0-0.1,0-0.2,0c-0.2,0-0.4,0.1-0.5,0.3c-0.4,0-0.9,0.4-0.8,0.9c0.1,0.5,0.2,1,0.2,1.5c0,0-0.4,12.5-1.3,14.7
				c-0.1,0.1-0.2,0.2-0.2,0.4c-0.5,1.2-0.5,2.8,0.3,3.8c0.4,0.5,0.9,0.7,1.5,0.8c0.1,0.1,0.2,0.1,0.4,0.1c3-0.3,6-0.4,9-0.6
				c0.8,0,1.7-0.1,2.6-0.1c0.6,0,1.3,0.1,1.9,0.1c1.5,0.1,3,0.2,4.5,0.5c0.2,0,0.3,0,0.4-0.1C98.8,71.2,98.8,71.2,98.8,71.1z"/>
			<path class="st0" d="M67,65c-0.1,0-0.1-0.1-0.1-0.2c0,0,0.1-0.1,0.2-0.1c0,0,0,0,0-0.1c0,0,0-0.1,0-0.1c0,0,0-0.1,0-0.1
				c0,0,0,0-0.1-0.1c-0.1,0-0.3,0-0.3,0c0,0-0.1,0-0.1-0.1c0,0,0,0,0,0c0-0.1-0.1-0.1-0.2-0.1c-3.9,0.4-7.8,1.2-11.6,2.2
				c0-0.8,0.1-1.5,0.1-2.3c0-0.4,0.1-0.8,0.1-1.2l0-0.5c2.2-0.5,4.3-1.1,6.4-2c0,0,0.1,0,0.1-0.1c0.2-0.1,0.4-0.2,0.5-0.4
				c0.1-0.1,0.1-0.3,0.2-0.4c0.1-0.1,0.2-0.2,0.3-0.3c0.1-0.1,0.2-0.1,0.3-0.3c0-0.1,0-0.2,0.1-0.3c0.1-0.1,0.2-0.2,0.2-0.3
				c0,0,0,0,0,0c0-0.2,0.1-0.4,0.1-0.6c0,0,0,0,0,0c-0.1,0-0.1,0-0.2,0c-0.1,0-0.1-0.1,0-0.2c0,0,0.1-0.1,0.2-0.1c0,0,0,0,0,0
				c0-0.1,0-0.1-0.1-0.2c0,0-0.1,0-0.1,0c-0.1,0-0.1-0.1-0.1-0.1c0,0-0.1,0-0.1,0c-0.2,0-0.3,0-0.5,0c0,0-0.1,0-0.1,0
				c-2.2,0-4.4,0.2-6.5,0.5c0.1-0.9,0.1-1.9,0.1-2.8c0-0.1,0-0.1,0-0.2c2.5-0.4,5-0.8,7.6-1.3c0.1-0.1,0.3-0.1,0.4-0.2
				c0-0.1,0-0.1,0-0.2c0.1-0.2,0.3-0.3,0.5-0.4c0,0,0-0.1,0-0.1c0.1,0,0.2-0.1,0.3-0.1c0,0,0-0.1,0-0.1c0.1,0,0.2-0.1,0.2-0.1
				c0.1-0.1,0-0.3-0.1-0.4c0-0.1,0.1-0.2,0.3-0.2c0.2-0.1,0.3-0.2,0.4-0.4c0,0,0,0,0,0c0,0,0,0,0-0.1c0,0,0,0,0,0
				c0.1-0.1,0.1-0.2,0.1-0.3c0,0-0.1,0-0.1,0c-0.1,0-0.2-0.1-0.1-0.2c0.1-0.1,0.1-0.1,0.2-0.2c0,0,0-0.1,0-0.1c0,0,0,0,0,0
				c0-0.1-0.1-0.2-0.1-0.3c-0.1-0.2-0.2-0.2-0.3-0.1c0,0,0,0,0,0c-0.1-0.1-0.3-0.1-0.4,0c0,0-3.8-0.1-8,0c-2.1,0.1-4.1,0.2-6.2,0.4
				c-0.1,0-0.2,0.1-0.3,0.2c-0.1,0.1-0.1,0.2-0.1,0.3c0,0.1,0.1,0.3,0.1,0.4c0.6,8.7,0.5,13.1,0.4,15.1c0,0.5-0.1,0.9-0.1,1.4
				c-1.8,1-0.9,2.8-0.6,3.5c0.3,0.7,0.9,1.6,2.6,0.7c0.7-0.4,2-0.9,3.3-1.3c0.2-0.1,0.3-0.1,0.5-0.2c0.8-0.3,1.6-0.5,2.5-0.8
				c0,0,0.1,0,0.1,0l0,0c1.9-0.6,3.9-1.1,5.8-1.5c0.1,0,0.1-0.1,0.2-0.1c0,0,0,0,0,0c0,0,0,0,0,0c0,0,0,0,0,0c0.1,0,0.1-0.1,0.2-0.1
				c0,0,0-0.1,0-0.1c0,0,0,0,0,0c0,0,0-0.1,0-0.1c0.1-0.1,0.3-0.2,0.4-0.2c0,0,0,0,0,0c0.4-0.3,0.8-0.6,1.2-0.9
				c0.2-0.1,0.1-0.3,0-0.4c0-0.2,0.3-0.4,0.3-0.5c0,0,0,0,0,0c0,0,0,0,0-0.1c0-0.1,0.1-0.1,0.1-0.2c0-0.1,0.1-0.2,0.1-0.3
				C67.1,65,67.1,65,67,65z"/>
			<path class="st0" d="M48.4,72.1c-0.1-1-0.4-2-0.9-3c0,0,0-0.1,0-0.1c-2.5-6.2-14.5-9.3-16-10c0,0,0,0,0,0c0,0-0.4-0.1-0.4-0.3
				c0-0.2,0.3-0.4,1.1-0.6c0.8-0.2,7.1-2.3,12.5-2c0.1,0,0.2,0,0.3-0.1c0,0,0.1,0,0.1,0c0.3-0.1,0.4-0.5,0.5-0.8
				c0.2-0.4,0.3-0.7,0.3-1.1c0.1-0.5,0.1-1,0-1.5c0-0.3,0-0.6-0.1-0.9c-0.1-0.4-0.4-0.7-0.6-1c-0.5-0.9-1.4-1.7-2.3-1.8
				c0,0,0,0-0.1,0c0,0-0.1,0-0.1,0c-2.7-0.3-12.5,1.8-15.8,3.3c-1,0.4-1.8,1.2-2.3,2.2c-0.1,0.2-0.2,0.4-0.3,0.6c-1,2.2-1,5.2,0,7.8
				c1.6,4,18.3,9.3,19.5,10.4c1.2,1.1,0.3,3.7-8.5,4.4c-8.8,0.7-9.1-8.6-9.1-8.6c0-0.6,0-1.2-0.1-1.7c0-0.2-0.1-0.4-0.2-0.3
				c0,0-0.1,0-0.1,0.1c0,0,0,0,0,0c0,0-0.1,0-0.1,0c0,0.1,0,0.1-0.1,0.2c0,0.1-0.1,0.1-0.1,0.1c0,0,0,0,0,0
				c-0.1,0.2-0.1,0.4-0.1,0.6c0,0.1-0.2,0.1-0.2,0l0,0c0,0-0.1,0-0.1-0.1c0,0.1-0.1,0.2-0.1,0.3l-0.4,0.4c-0.2,0-0.3,0.1-0.3,0.4
				c0,0.1,0,0.2,0,0.3c0,0-2.1,5.9,0.9,10.8c0,0,0,0.1,0.1,0.1c0.1,0.1,0.2,0.3,0.3,0.4c0.1,0.1,0.1,0.2,0.2,0.3
				c0.3,0.4,0.6,0.8,0.9,1.2c4.3,5.4,12.5,4.1,16.9,2.1C47.1,82.4,49.3,77.4,48.4,72.1z"/>
			<path class="st0" d="M99.2,79.5C99.2,79.5,99.2,79.5,99.2,79.5c0.2-0.2,0.5-0.4,0.2-0.6c-0.1-0.1,0-0.2,0.1-0.2
				c0.1,0,0.1,0,0.2,0c0,0,0,0,0,0c0,0,0,0,0,0c0,0,0-0.1,0-0.1c0,0,0,0,0-0.1c0,0,0,0,0,0c0,0,0-0.1,0-0.1c0,0,0,0,0,0c0,0,0,0,0,0
				c-0.1-0.1-0.1-0.1-0.2-0.1c-0.1,0,0-0.2,0-0.2c0.1,0,0.5,0.1,0.6,0c0,0,0,0,0,0c-0.1,0,0-0.1,0.1-0.2c0,0-0.1-0.1-0.1-0.1
				c0,0,0-0.1,0-0.1c0,0,0-0.1,0-0.1c0-0.1-0.1-0.1-0.1-0.2c0,0,0-0.1,0-0.1c0,0,0-0.1-0.1-0.1c0,0,0-0.1,0-0.1
				c-0.2-0.1-0.3-0.2-0.3-0.4c-0.1-0.2,0-0.4-0.2-0.5c-0.1-0.1-0.2-0.2-0.3-0.2c-1-0.6-2.6-1.1-3.7-1.4c-6.1-1.4-12.4-1.8-18.7-1.2
				l-1.6,0.2c0,0,2.9-20.4,0.3-25.2c-0.1-0.1-0.2-0.3-0.3-0.4c-0.1-0.1-0.2-0.2-0.2-0.3c-0.6-0.7-1.2-1.1-1.9-1.3c0,0,0,0,0,0
				c-0.8-0.3-1.6-0.4-2.4-0.2c-0.5-0.1-1.1,0-1.3,0.4c-0.1,0-0.1,0.1-0.2,0.1c-0.1,0.1-0.1,0.2-0.1,0.3c0,0,0,0.1,0,0.1
				c0,0.1,0,0.2,0,0.3c0,0.2,0,0.4,0.1,0.6c0.8,7.5,0.2,27.1,0.2,27.1c-1.1,0.6-1.2,1.8-1.1,3c-0.1,0.7-0.1,1.4,0.1,2
				c0.3,0.6,1.1,2,3.4,1.5c2.8-0.6,5.8-1.8,15.6-2.4c6.6-0.4,9.3,0,10.4,0.2c0.2,0,0.3,0.1,0.5,0.2c0.1,0.1,0.2,0.1,0.2,0.1
				C98.8,79.8,99,79.7,99.2,79.5C99.2,79.5,99.2,79.5,99.2,79.5z"/>
			<path class="st0" d="M21.6,69.9c0-0.1,0.1-0.2,0-0.4c0,0,0-0.1,0-0.2c0,0,0,0,0-0.1c-0.1,0-0.1-0.1-0.2-0.1c-0.1,0-0.1-0.2,0-0.2
				c0,0,0,0,0,0c0,0,0,0,0,0c0,0-0.1-0.1-0.1-0.1c0,0,0-0.1,0-0.1c0,0-0.1,0-0.1-0.1c0,0-0.1,0-0.1-0.1c0,0,0,0,0-0.1
				c-0.1,0-0.1-0.1-0.2-0.1c-0.1-0.1,0-0.2,0.1-0.2c0,0,0.1,0,0.1,0c0,0,0,0,0-0.1c-0.1-0.1-0.2-0.2-0.3-0.3c-0.1,0-0.2-0.1-0.3-0.1
				c-1.2-0.3-2.5-0.5-3.7-0.6c-2.4-0.3-4.8-0.3-7.2-0.2c0.5-2.7,0.9-5.3,0.9-8.1c0-2.1-0.4-4.7-2.7-5.4c-0.5-0.2-1.5-0.1-1.6,0.6
				c0,0.4,0,0.9,0,1.3c0.2,1.7,0.3,3.6,0.4,5.5c0,1.2,0,2.4,0,3.6c0,2-0.1,3.4-0.1,3.4c-0.2,0.2-0.5,1.1-0.3,1.8
				c0,0.1,0,0.2,0.1,0.3c0.2,0.3,0.6,0.9,1.4,0.8c1.1-0.2,7.2-1.5,13.4-0.9c0,0,0,0,0,0c0,0,0,0,0.1,0c0,0,0,0,0.1,0
				c0,0,0.1,0,0.1,0l0,0c0.1,0,0.3-0.1,0.4-0.2C21.6,70,21.6,70,21.6,69.9z"/>
		</g>
	</g>
	<g>
		<g>
			<path class="st0" d="M101.7,52.9c0-0.3,0.2-0.5,0.6-0.5h3c0.3,0,0.5,0.2,0.5,0.5v12.3c0,0.1,0,0.3-0.1,0.4
				c-0.1,0.1-0.2,0.1-0.4,0.1h-3c-0.1,0-0.2,0-0.4-0.1c-0.1-0.1-0.2-0.2-0.2-0.4V52.9z M101.7,67.9c0-0.2,0-0.3,0.1-0.4
				c0.1-0.1,0.2-0.1,0.4-0.1h3c0.1,0,0.2,0,0.4,0.1c0.1,0.1,0.2,0.2,0.2,0.4v2.8c0,0.1,0,0.3-0.1,0.4s-0.2,0.2-0.4,0.2h-3
				c-0.3,0-0.5-0.2-0.5-0.5V67.9z"/>
		</g>
	</g>
</g>
<g>
</g>
<g>
</g>
<g>
</g>
<g>
</g>
<g>
</g>
<g>
</g>
<g>
</g>
<g>
</g>
<g>
</g>
<g>
</g>
<g>
</g>
<g>
</g>
<g>
</g>
<g>
</g>
<g>
</g>
</svg>
