<?xml version="1.0" encoding="utf-8"?>
<!-- Generator: Adobe Illustrator 24.1.3, SVG Export Plug-In . SVG Version: 6.00 Build 0)  -->
<svg version="1.1" id="Capa_1" xmlns="http://www.w3.org/2000/svg" xmlns:xlink="http://www.w3.org/1999/xlink" x="0px" y="0px"
	 viewBox="0 0 70 70" style="enable-background:new 0 0 70 70;" xml:space="preserve">
<style type="text/css">
	.st0{fill:#FFFFFF;}
</style>
<g>
	<path class="st0" d="M9.7,4.1v8.2H6.5v3.6h3.2v6.8H6.5v3.6h3.2v6.8H6.5v3.6h3.2v6.8H6.5v3.6h3.2v6.8H6.5v3.6h3.2v8.2h53.8V4.1H9.7z
		 M59.9,62.3H13.3v-4.6h3.2v-3.6h-3.2v-6.8h3.2v-3.6h-3.2v-6.8h3.2v-3.6h-3.2v-6.8h3.2v-3.6h-3.2v-6.8h3.2v-3.6h-3.2V7.7h46.6V62.3z
		"/>
	<path class="st0" d="M41.4,18.2h11.7v3.6H41.4V18.2z"/>
	<path class="st0" d="M41.4,33.2h11.7v3.6H41.4V33.2z"/>
	<path class="st0" d="M41.4,49.4h11.7V53H41.4V49.4z"/>
	<path class="st0" d="M35.9,16.6l-2.6-2.6l-5.9,5.8l-2.7-2.7l-2.6,2.6l5.3,5.3L35.9,16.6z"/>
	<path class="st0" d="M35.9,31.9l-2.6-2.6l-5.9,5.8l-2.7-2.7L22.2,35l5.3,5.3L35.9,31.9z"/>
	<path class="st0" d="M35.9,47.1l-2.6-2.6l-5.9,5.8l-2.7-2.7l-2.6,2.6l5.3,5.3L35.9,47.1z"/>
</g>
</svg>
